<?xml version="1.0" encoding="utf-8"?>
<!-- Generator: Adobe Illustrator 16.0.3, SVG Export Plug-In . SVG Version: 6.00 Build 0)  -->
<!DOCTYPE svg PUBLIC "-//W3C//DTD SVG 1.1//EN" "http://www.w3.org/Graphics/SVG/1.1/DTD/svg11.dtd">
<svg version="1.1" xmlns="http://www.w3.org/2000/svg" xmlns:xlink="http://www.w3.org/1999/xlink" x="0px" y="0px" width="792px"
	 height="649.243px" viewBox="0 0 792 649.243" enable-background="new 0 0 792 649.243" xml:space="preserve">
<g id="Capa_1">
	<rect x="108" y="99.243" fill="#212932" width="559" height="453"/>
	<g>
		<defs>
			<rect id="SVGID_1_" width="792" height="649.243"/>
		</defs>
		<clipPath id="SVGID_2_">
			<use xlink:href="#SVGID_1_"  overflow="visible"/>
		</clipPath>
		
			<path clip-path="url(#SVGID_2_)" fill="none" stroke="#ECEC84" stroke-width="10" stroke-linejoin="round" stroke-miterlimit="10" d="
			M521.098,213.461c0,0,7.2,18.72,0,36.96"/>
		
			<path clip-path="url(#SVGID_2_)" fill="none" stroke="#ECEC84" stroke-width="10" stroke-linejoin="round" stroke-miterlimit="10" d="
			M532.379,252.941c0,6.429-5.212,11.64-11.641,11.64c-6.428,0-11.64-5.211-11.64-11.64c0-6.428,5.212-11.64,11.64-11.64
			C527.167,241.301,532.379,246.513,532.379,252.941"/>
		
			<polygon clip-path="url(#SVGID_2_)" fill="none" stroke="#ECEC84" stroke-width="10" stroke-linejoin="round" stroke-miterlimit="10" points="
			521.098,213.461 562.378,227.381 614.699,343.063 523.979,382.321 473.098,263.381 486.058,228.821 		"/>
		
			<path clip-path="url(#SVGID_2_)" fill="none" stroke="#ECEC84" stroke-width="10" stroke-linejoin="round" stroke-miterlimit="10" d="
			M454.378,250.421c0,0-10.079-14.88-8.159-24s-0.96-10.56,13.439-25.44c14.4-14.88,38.88-8.64,38.88-8.64s10.561,5.28,22.561,21.12
			"/>
		<polygon clip-path="url(#SVGID_2_)" fill="none" stroke="#BFC3C3" stroke-width="18" stroke-miterlimit="10" points="
			293.758,260.202 293.758,186.042 416.158,186.042 416.158,260.202 495.359,260.202 495.359,386.202 418.319,386.202 
			418.319,464.681 293.758,464.681 293.758,388.361 215.278,388.361 215.278,262.362 293.818,262.362 		"/>
	</g>
	<text transform="matrix(1.1496 0 0 1 171.7227 375.5967)"><tspan x="0" y="0" fill="#147F7C" font-family="'FredokaOne-Regular'" font-size="140.0228">MED</tspan><tspan x="-196.836" y="72" fill="#E9EB83" font-family="'Alittlesunshine'" font-size="60" letter-spacing="17.397">									</tspan><tspan x="105.613" y="72" fill="#E9EB83" font-family="'Alittlesunshine'" font-size="60"> </tspan><tspan x="121.093" y="72" fill="#E9EB83" font-family="'Alittlesunshine'" font-size="48">FREE</tspan></text>
</g>
<g id="Capa_2">
</g>
</svg>
